<mxfile host="app.diagrams.net" agent="Mozilla/5.0 (Windows NT 10.0; Win64; x64) AppleWebKit/537.36 (KHTML, like Gecko) Chrome/109.0.0.0 Safari/537.36" version="24.9.1">
  <diagram name="PÃ¡gina-1" id="n6AL2eGgdV022deHJQ-o">
    <mxGraphModel dx="3915" dy="1913" grid="1" gridSize="10" guides="1" tooltips="1" connect="1" arrows="1" fold="1" page="1" pageScale="1" pageWidth="827" pageHeight="1169" math="0" shadow="0">
      <root>
        <mxCell id="0" />
        <mxCell id="1" parent="0" />
        <mxCell id="fCInA0RL26As7bWPPqoS-1" style="edgeStyle=orthogonalEdgeStyle;rounded=0;orthogonalLoop=1;jettySize=auto;html=1;entryX=0.48;entryY=1;entryDx=0;entryDy=0;entryPerimeter=0;exitX=0.412;exitY=0.003;exitDx=0;exitDy=0;exitPerimeter=0;" edge="1" parent="1" source="fCInA0RL26As7bWPPqoS-2" target="fCInA0RL26As7bWPPqoS-9">
          <mxGeometry relative="1" as="geometry">
            <mxPoint x="-1685" y="-60" as="sourcePoint" />
            <mxPoint x="-1534" y="-260" as="targetPoint" />
          </mxGeometry>
        </mxCell>
        <mxCell id="fCInA0RL26As7bWPPqoS-2" value="&amp;lt;&amp;lt;abstract&amp;gt;&amp;gt;&lt;div&gt;Funcionario&lt;/div&gt;" style="swimlane;fontStyle=1;align=center;verticalAlign=top;childLayout=stackLayout;horizontal=1;startSize=38;horizontalStack=0;resizeParent=1;resizeParentMax=0;resizeLast=0;collapsible=1;marginBottom=0;whiteSpace=wrap;html=1;fillColor=#BAC8D3;" vertex="1" parent="1">
          <mxGeometry x="-1810" y="-20" width="250" height="303" as="geometry" />
        </mxCell>
        <mxCell id="fCInA0RL26As7bWPPqoS-3" value="- salario: double&lt;div&gt;- nome: String&amp;nbsp;&lt;/div&gt;&lt;div&gt;- email: String&amp;nbsp; &amp;nbsp;&lt;br&gt;&lt;/div&gt;" style="text;strokeColor=none;fillColor=none;align=left;verticalAlign=middle;spacingLeft=4;spacingRight=4;overflow=hidden;rotatable=0;points=[[0,0.5],[1,0.5]];portConstraint=eastwest;whiteSpace=wrap;html=1;" vertex="1" parent="fCInA0RL26As7bWPPqoS-2">
          <mxGeometry y="38" width="250" height="64" as="geometry" />
        </mxCell>
        <mxCell id="fCInA0RL26As7bWPPqoS-4" value="" style="line;strokeWidth=1;fillColor=none;align=left;verticalAlign=middle;spacingTop=-1;spacingLeft=3;spacingRight=3;rotatable=0;labelPosition=right;points=[];portConstraint=eastwest;strokeColor=inherit;" vertex="1" parent="fCInA0RL26As7bWPPqoS-2">
          <mxGeometry y="102" width="250" height="8" as="geometry" />
        </mxCell>
        <mxCell id="fCInA0RL26As7bWPPqoS-5" value="&lt;div&gt;+ Funcionario(salario: double, nome: String, email: String)&lt;/div&gt;&lt;div&gt;+ getSalario(): double&amp;nbsp;&lt;/div&gt;&lt;div&gt;+ getNome(): String&amp;nbsp;&lt;/div&gt;&lt;div&gt;+ getEmail(): String&amp;nbsp;&lt;/div&gt;&lt;div&gt;+ setSalario(salario: double)&amp;nbsp;&lt;/div&gt;&lt;div&gt;+ setNome(nome: String)&amp;nbsp;&lt;/div&gt;&lt;div&gt;+ setEmail(email: String)&amp;nbsp;&lt;/div&gt;&lt;div&gt;+ calcSalarioLiquido(): double&amp;nbsp;&lt;/div&gt;&lt;div&gt;# calcDescontosPrevidencia():&amp;nbsp;double&amp;nbsp;&lt;/div&gt;&lt;div&gt;# calcDescontosPlanoSaude():&amp;nbsp;double&amp;nbsp;&lt;/div&gt;&lt;div&gt;# calcOutrosDescontos():&amp;nbsp;double&amp;nbsp;&amp;nbsp; &amp;nbsp;&amp;nbsp;&lt;/div&gt;" style="text;strokeColor=none;fillColor=none;align=left;verticalAlign=middle;spacingLeft=4;spacingRight=4;overflow=hidden;rotatable=0;points=[[0,0.5],[1,0.5]];portConstraint=eastwest;whiteSpace=wrap;html=1;" vertex="1" parent="fCInA0RL26As7bWPPqoS-2">
          <mxGeometry y="110" width="250" height="193" as="geometry" />
        </mxCell>
        <mxCell id="fCInA0RL26As7bWPPqoS-6" value="Cozinheiro" style="swimlane;fontStyle=1;align=center;verticalAlign=top;childLayout=stackLayout;horizontal=1;startSize=26;horizontalStack=0;resizeParent=1;resizeParentMax=0;resizeLast=0;collapsible=1;marginBottom=0;whiteSpace=wrap;html=1;fillColor=#BAC8D3;" vertex="1" parent="1">
          <mxGeometry x="-1650" y="-480" width="250" height="230" as="geometry" />
        </mxCell>
        <mxCell id="fCInA0RL26As7bWPPqoS-7" value="- Funcao: String&lt;div&gt;- output: OutputInterface&amp;nbsp;&lt;/div&gt;&lt;div&gt;- sc: Scanner (static)&amp;nbsp;&amp;nbsp;&lt;br&gt;&lt;/div&gt;" style="text;strokeColor=none;fillColor=none;align=left;verticalAlign=middle;spacingLeft=4;spacingRight=4;overflow=hidden;rotatable=0;points=[[0,0.5],[1,0.5]];portConstraint=eastwest;whiteSpace=wrap;html=1;" vertex="1" parent="fCInA0RL26As7bWPPqoS-6">
          <mxGeometry y="26" width="250" height="64" as="geometry" />
        </mxCell>
        <mxCell id="fCInA0RL26As7bWPPqoS-8" value="" style="line;strokeWidth=1;fillColor=none;align=left;verticalAlign=middle;spacingTop=-1;spacingLeft=3;spacingRight=3;rotatable=0;labelPosition=right;points=[];portConstraint=eastwest;strokeColor=inherit;" vertex="1" parent="fCInA0RL26As7bWPPqoS-6">
          <mxGeometry y="90" width="250" height="8" as="geometry" />
        </mxCell>
        <mxCell id="fCInA0RL26As7bWPPqoS-9" value="&lt;div&gt;+ Cozinheiro(Funcao: String, salario: double, nome: String, email: String, outputInterface: OutputInterface, tipoOutput: String)&lt;/div&gt;&lt;div&gt;+ getFuncao(): String&lt;/div&gt;&lt;div&gt;+ setFuncao(Funcao: String): void&amp;nbsp;&lt;/div&gt;&lt;div&gt;+ calcDescontosPrevidencia(): double&lt;/div&gt;&lt;div&gt;+ calcDescontosPlanoSaude(): double&lt;br&gt;+ calcOutrosDescontos(): double&amp;nbsp;&amp;nbsp; &amp;nbsp; &amp;nbsp; &amp;nbsp; &amp;nbsp;&amp;nbsp;&lt;/div&gt;" style="text;strokeColor=none;fillColor=none;align=left;verticalAlign=middle;spacingLeft=4;spacingRight=4;overflow=hidden;rotatable=0;points=[[0,0.5],[1,0.5]];portConstraint=eastwest;whiteSpace=wrap;html=1;" vertex="1" parent="fCInA0RL26As7bWPPqoS-6">
          <mxGeometry y="98" width="250" height="132" as="geometry" />
        </mxCell>
      </root>
    </mxGraphModel>
  </diagram>
</mxfile>
